<?xml version="1.0" encoding="UTF-8"?>
<svg id="Capa_1" data-name="Capa 1" xmlns="http://www.w3.org/2000/svg" viewBox="0 0 873.06 543.38">
  <defs>
    <style>
      .cls-1 {
        fill: #dc2727;
      }
    </style>
  </defs>
  <path class="cls-1" d="M309.35,241.85h137.41l2.36-2.36v-47.9h21.99v48.68h108.36l-108.36,12.55-1.55,262.27h-18.86l-1.57-260.68-139.76,4.7,13.36,284.26c-37.68-53.94-84.47-102.61-135.04-144.54l-66.74,138.23,50.03-154.51C116.45,333.48,60.54,285.8,0,244.19l216.49-.97L296,0l13.35,241.85ZM287.36,243.42l-5.5-106.8-36.9,106.8h42.4ZM210.41,260.71l-130.33,2.34,101.27,88.75,29.06-91.09ZM288.93,260.7h-51.82l-39.03,110.35,101.05,107.94-10.19-218.3Z"/>
  <path class="cls-1" d="M637.56,458.57c6.35-46.78-16.49-50.42-55.55-39.15l-2.54-6.33c17.78-8.27,35.62-14.9,55.63-9.4,41.95,11.54,4.79,81.02,32.22,105.74l-10.14,8.74-20.42-17.27c-13.83,9.9-28.23,21.85-46.3,14.95-13.09-4.99-18.15-19.45-13.37-32.18,7.03-18.73,42.79-24.84,60.47-25.11ZM637.55,463.27c-26.08-.16-61.84,21.68-27.27,43.58,5.43.57,27.27-12.56,27.27-17.67v-25.91Z"/>
  <path class="cls-1" d="M415.96,406.9l-1.42,15.55c-12.75-3.71-35.81-19.53-45.56-3.97-13.44,21.46,27.26,33.35,39.19,42.55,29.55,22.8,8.81,56.23-24.31,57.23-9.69.29-40.16-3.09-36.82-17.29,14.68,8.37,55.24,14.56,56.43-10.34,1.07-22.51-49.72-26.82-53.33-54.79-5.03-38.98,39.89-37.7,65.82-28.94Z"/>
  <path class="cls-1" d="M866.66,406.9l-1.42,15.55c-13.08-3.59-32.72-18.34-44.04-5.59-18.65,21.02,26.21,35.33,37.67,44.17,29.55,22.8,8.81,56.23-24.31,57.23-9.69.29-40.16-3.09-36.82-17.29,14.68,8.37,55.24,14.56,56.43-10.34,1.07-22.51-49.72-26.82-53.33-54.79-5.03-38.98,39.89-37.7,65.82-28.94Z"/>
  <rect class="cls-1" x="694.09" y="348.64" width="20.41" height="166.46"/>
  <path class="cls-1" d="M505.64,405.17l12.66.69c1.69,1.19,3.64,12.78,4.59,15.85.53,1.72-1.09,2.81,2.37,2.29,8.32-11.95,21.97-22.58,36.92-23.55l1.58,15.71c-14.97.89-27.96,9.05-39.27,18.06v80.87h-18.84v-109.93Z"/>
  <rect class="cls-1" x="752.19" y="405.17" width="18.84" height="109.93"/>
  <circle class="cls-1" cx="761.78" cy="370.23" r="12.37"/>
</svg>