<?xml version="1.0" encoding="UTF-8"?>
<svg id="Capa_1" data-name="Capa 1" xmlns="http://www.w3.org/2000/svg" viewBox="0 0 781.66 821">
  <defs>
    <style>
      .cls-1 {
        fill: #fff;
        opacity: .44;
        stroke: #fff;
        stroke-miterlimit: 10;
        stroke-width: 7px;
      }
    </style>
  </defs>
  <path class="cls-1" d="M778.13,582.66c.25,1.41-.98,6.57-2.66,6.6l-333.57-110.46-209.8,337.15-3.8-2.77,79.29-378.59L9.36,331.08l353.92-162.95,3.27-5.2,23.81-109.34,6.68,2.98,51.68,72.77L727.34,4.35l2.52,3.39-168.64,276.66,216.92,298.26ZM556.72,276.72L714.19,18.75l-258.92,116.63,101.45,141.33ZM440.16,134.4l-45.42-65.48-20.64,94.05,66.06-28.57ZM438.35,469.63l112.29-184.6-103.81-144.9-75.19,35.31-54.56,254.2,121.27,39.99ZM310.08,427.4l53.03-249.35L24.76,331.34l285.32,96.06ZM763.56,576.18l-208.25-282.91-109.91,178.67,318.17,104.24ZM433.35,475.88l-117.11-38.78-75.45,349.04,192.56-310.27Z"/>
</svg>